<svg xmlns="http://www.w3.org/2000/svg" width="128.862" height="92.891" viewBox="0 0 128.862 92.891"><g transform="translate(-464.929 0)"><path d="M621.628,172.2a.7.7,0,0,0-.7.7v91.491a.7.7,0,0,0,.7.7H749.09a.7.7,0,0,0,.7-.7V172.9a.7.7,0,0,0-.7-.7Z" transform="translate(-156 -172.198)" fill="rgba(252,126,47,0.2)"/><path d="M758.867,193.042V258.06a1.636,1.636,0,0,1-1.637,1.637H646.857a1.38,1.38,0,0,1-.235-.018,1.635,1.635,0,0,1-1.4-1.619V193.042a1.636,1.636,0,0,1,1.637-1.637H757.23A1.636,1.636,0,0,1,758.867,193.042Z" transform="translate(-172.813 -185.492)" fill="#fff"/><circle cx="14.361" cy="14.361" r="14.361" transform="translate(485.867 15.85)" fill="#ff6584"/><path d="M722.89,281.615H652.439a1.438,1.438,0,0,1-.263-.021L685.5,223.88a2.333,2.333,0,0,1,4.061,0l22.362,38.731,1.071,1.853Z" transform="translate(-177.627 -207.149)" fill="#3f3d56"/><path d="M671.792,199.156H647.739L659.547,182l.85-1.235.425-.618L661.893,182Z" transform="translate(-126.53 -124.69)" opacity="0.2"/><path d="M872.294,319.856H811.359l11.808-17.151.85-1.236L839.4,279.118a3.113,3.113,0,0,1,4.621-.276,2.774,2.774,0,0,1,.222.276Z" transform="translate(-287.804 -245.391)" fill="#3f3d56"/></g></svg>