<svg xmlns="http://www.w3.org/2000/svg" width="135.358" height="122.518" viewBox="0 0 135.358 122.518"><circle cx="60.547" cy="60.547" r="60.547" transform="translate(1.998 1.424)" fill="rgba(252,126,47,0.31)" opacity="0.3"/><rect width="20.49" height="12.707" transform="translate(4.129 68.254)" fill="#464353"/><path d="M1117.833,393.813l12.39-5h2.715a1.493,1.493,0,0,1,1.493,1.493V425.2a1.493,1.493,0,0,1-1.493,1.493h-2.715l-12.39-5.16Z" transform="translate(-999.074 -331.369)" fill="#464353"/><rect width="25.333" height="24.538" transform="translate(93.426 64.033)" fill="#464353"/><rect width="16.308" height="2.964" transform="translate(51.855 18.826)" fill="#514e7f"/><rect width="45.903" height="33.514" transform="translate(33.508 22.512)" fill="#514e7f"/><rect width="45.903" height="3.972" transform="translate(33.508 51.838)" opacity="0.1"/><rect width="1.027" height="24.538" transform="translate(94.302 64.033)" opacity="0.1"/><rect width="6.989" height="12.707" transform="translate(17.629 68.254)" opacity="0.1"/><path d="M846.37,374.11H812.643l.535-4.274,32.192-3.6Z" transform="translate(-771.862 -272.591)" opacity="0.1"/><rect width="79.417" height="48.92" rx="13.859" transform="translate(18.263 51.96)" fill="#514e7f"/><path d="M1080.182,260.428h.241v27.716h-.241a1.982,1.982,0,0,1-1.982-1.982V262.411A1.982,1.982,0,0,1,1080.182,260.428Z" transform="translate(-961.664 -197.985)" fill="#514e7f"/><path d="M1127.755,243.5h2.57a1.638,1.638,0,0,1,1.638,1.638v34.61a1.638,1.638,0,0,1-1.638,1.638h-2.57Z" transform="translate(-996.606 -186.048)" fill="#514e7f"/><rect width="3.655" height="12.707" transform="translate(4.129 68.254)" opacity="0.1"/><rect width="7.146" height="21.601" rx="3.573" transform="translate(0 64.247)" fill="#514e7f"/><circle cx="22.873" cy="22.873" r="22.873" transform="translate(12.229)" fill="#464353"/><circle cx="17.156" cy="17.156" r="17.156" transform="translate(17.946 5.717)" fill="#f40552"/><circle cx="16.678" cy="16.678" r="16.678" transform="translate(58.395 6.672)" fill="#464353"/><circle cx="12.508" cy="12.508" r="12.508" transform="translate(62.588 10.843)" fill="#f40552"/><circle cx="2.196" cy="2.196" r="2.196" transform="translate(71.69 57.489)" fill="#f40552"/><circle cx="2.196" cy="2.196" r="2.196" transform="translate(78.455 57.489)" fill="#f40552" opacity="0.5"/></svg>