<svg xmlns="http://www.w3.org/2000/svg" width="83.549" height="86.531" viewBox="0 0 83.549 86.531"><path d="M41.775,0C64.846,0,83.549,19.371,83.549,43.266s-18.7,43.266-41.775,43.266S0,67.16,0,43.266,18.7,0,41.775,0Z" fill="#fc7e2f"/><path d="M50.209,25.539l2.714,2.714a2.922,2.922,0,0,1,0,4.144L29.169,56.163a2.922,2.922,0,0,1-4.144,0L1.259,32.4a2.922,2.922,0,0,1,0-4.144l2.714-2.714a2.937,2.937,0,0,1,4.193.049L22.2,40.319V5.184A2.927,2.927,0,0,1,25.135,2.25h3.912a2.927,2.927,0,0,1,2.934,2.934V40.319L46.016,25.588a2.916,2.916,0,0,1,4.193-.049Z" transform="translate(14.683 13.423)" fill="#fff"/></svg>