<svg xmlns="http://www.w3.org/2000/svg" xmlns:xlink="http://www.w3.org/1999/xlink" width="123.039" height="126.029" viewBox="0 0 123.039 126.029"><defs><linearGradient id="a" x1="0.5" y1="1" x2="0.5" gradientUnits="objectBoundingBox"><stop offset="0" stop-color="gray" stop-opacity="0.251"/><stop offset="0.54" stop-color="gray" stop-opacity="0.122"/><stop offset="1" stop-color="gray" stop-opacity="0.102"/></linearGradient><linearGradient id="b" x1="0.507" y1="1.057" x2="0.507" y2="-0.083" xlink:href="#a"/><linearGradient id="d" x1="0.776" y1="1.131" x2="0.776" y2="0.131" xlink:href="#a"/><clipPath id="e"><rect width="85.153" height="77.069" fill="url(#a)"/></clipPath><linearGradient id="f" x1="0.5" y1="1" x2="0.5" y2="0" xlink:href="#a"/><clipPath id="g"><rect width="84.076" height="74.913" fill="#fff"/></clipPath></defs><g transform="translate(-66.92 -0.002)"><circle cx="60.547" cy="60.547" r="60.547" transform="translate(67.227 4.937)" fill="rgba(252,126,47,0.31)" opacity="0.3"/><rect width="108.328" height="95.075" transform="translate(80.667 107.265) rotate(-81.96)" fill="url(#b)"/><rect width="103.836" height="92.848" transform="translate(82.173 104.574) rotate(-81.96)" fill="#fff"/><rect width="84.076" height="74.913" transform="translate(100.541 4.749) rotate(8.04)" fill="#f40552"/><rect width="84.076" height="74.913" transform="translate(100.541 4.749) rotate(8.04)" fill="none" stroke="#f40552" stroke-miterlimit="10" stroke-width="5"/><rect width="95.075" height="108.328" transform="translate(66.92 15.107)" fill="url(#a)"/><rect width="92.848" height="103.836" transform="translate(68.035 16.725)" fill="#fff"/><rect width="85.153" height="77.069" transform="translate(71.629 18.52)" fill="url(#d)"/><g transform="translate(71.629 18.52)" clip-path="url(#e)"><path d="M181.268,353.336c2.783,3.07,5.066,6.862,8.777,8.646,5.382,2.591,11.933-.018,16.366-4.056s7.54-9.367,11.729-13.669c12.021-12.348,32.441-14.237,47.441-5.9a18.317,18.317,0,0,1,5.735,4.538c1.967,2.531,2.815,5.759,3.448,8.919a93.352,93.352,0,0,1,1.766,21.466c-.16,4.9-1.091,10.441-5.125,13.125a15.46,15.46,0,0,1-4.211,1.755c-21.683,6.394-44.68,5.955-67.242,4.995-16.819-.716-33.829-1.731-49.894-6.862a3.868,3.868,0,0,1-2-1.133,3.667,3.667,0,0,1-.479-2.553,57.507,57.507,0,0,1,1.789-8.575,58.166,58.166,0,0,0,1.324-18.1c-.448-5.373-3.458-9.914,2.756-11.417C163.2,342.134,174.553,345.924,181.268,353.336Z" transform="translate(-162.937 -308.702)" fill="url(#f)"/></g><rect width="84.076" height="74.913" transform="translate(72.258 19.149)" fill="#fff"/><g transform="translate(72.258 19.149)" clip-path="url(#g)"><path d="M185.986,352.373c2.748,2.984,5,6.667,8.666,8.4,5.314,2.518,11.781-.016,16.158-3.943s7.444-9.105,11.58-13.286c11.869-12,32.031-13.84,46.839-5.745a18.084,18.084,0,0,1,5.663,4.411c1.944,2.459,2.778,5.6,3.4,8.67a89.374,89.374,0,0,1,1.744,20.864c-.16,4.76-1.077,10.149-5.062,12.766a15.368,15.368,0,0,1-4.157,1.7c-21.408,6.223-44.119,5.789-66.392,4.854-16.6-.7-33.4-1.688-49.26-6.669a3.835,3.835,0,0,1-1.971-1.1,3.558,3.558,0,0,1-.479-2.488,55.672,55.672,0,0,1,1.766-8.336,55.691,55.691,0,0,0,1.307-17.595c-.442-5.221-3.413-9.637,2.721-11.1C168.143,341.489,179.357,345.178,185.986,352.373Z" transform="translate(-167.887 -308.992)" fill="#bdbdbd"/></g><circle cx="6.108" cy="6.108" r="6.108" transform="translate(76.568 23.461)" fill="#ff5252"/><rect width="2.874" height="22.096" transform="translate(127.768 69.451)" fill="#f40552" stroke="#f40552" stroke-miterlimit="10" stroke-width="5"/><path d="M410.875,266.839l-2.722-1.676,2.338.417-1.323-4.321-3.2-1.971,2.773.574-1.865-6.091-3.12-1.921,2.679.479-1.8-5.867-3.175-1.955,2.725.487-2.767-9.043-2,6.643,2-.715-2.349,1.872-1.452,4.827,3.8-.949-4.478,3.2-1.561,5.183,4.061-1.015-4.784,3.418-1.206,4.008,3.116-.78-3.672,2.623-2.078,6.9H412.2Z" transform="translate(-272.214 -198.297)" fill="#f40552" stroke="#f40552" stroke-miterlimit="10" stroke-width="5"/><rect width="92.848" height="13.474" transform="translate(68.035 107.088)" fill="#f40552"/></g></svg>