<svg xmlns="http://www.w3.org/2000/svg" width="123.094" height="131.894" viewBox="0 0 123.094 131.894"><g transform="translate(-350.503 -85.873)"><circle cx="58.047" cy="58.047" r="58.047" transform="translate(350.503 98.673)" fill="rgba(252,126,47,0.45)" opacity="0.3"/><circle cx="58.047" cy="58.047" r="58.047" transform="translate(357.503 101.673)" fill="rgba(252,126,47,0.14)" opacity="0.3"/><path d="M392.159,85.873,353.51,132.767l57.2,67.507,38.134-44.833Z" transform="translate(-0.447)" fill="#f40552"/><path d="M392.159,85.873,353.51,132.767l57.2,67.507,38.134-44.833Z" transform="translate(-0.447)" opacity="0.1"/><path d="M439.739,310.242h0a19.426,19.426,0,0,1,3.151-4.208l35.5-35.987s12.368-2.061,14.944,4.123l-45.348,37.1Z" transform="translate(-85.13 -176.96)" fill="#f2f2f2"/><path d="M434.8,307.36l52.562,80.39s5.153,3.607,10.306,1.546l53.851-36.33-57.2-86.574-51.532,40.195Z" transform="translate(-82 -174.85)" fill="#f40552"/><rect width="40.616" height="0.835" transform="matrix(0.812, -0.584, 0.584, 0.812, 372.916, 127.787)" fill="#3f3d56"/><rect width="0.835" height="78.466" transform="matrix(0.834, -0.552, 0.552, 0.834, 371.783, 137.119)" fill="#3f3d56"/><rect width="43.495" height="0.835" transform="translate(420.325 204.065) rotate(-36.344)" fill="#3f3d56"/><rect width="0.835" height="78.481" transform="translate(411.467 105.693) rotate(-34.838)" fill="#3f3d56"/><rect width="55.347" height="0.515" transform="translate(357.527 130.001) rotate(-42.545)" fill="#3f3d56"/><rect width="56.848" height="0.516" transform="translate(359.084 130.52) rotate(-41.439)" fill="#3f3d56"/><rect width="57.595" height="0.516" transform="matrix(0.768, -0.64, 0.64, 0.768, 360.125, 130.524)" fill="#3f3d56"/></g></svg>