<svg xmlns="http://www.w3.org/2000/svg" width="49.478" height="99" viewBox="0 0 49.478 99"><path d="M52.487,2.25H17.44a7.271,7.271,0,0,0-7.315,7.27V93.714a7.486,7.486,0,0,0,7.315,7.535H52.465A7.339,7.339,0,0,0,59.6,93.714V9.52A7.091,7.091,0,0,0,52.487,2.25ZM31.56,7.333H38.19a.884.884,0,1,1,0,1.768H31.56a.884.884,0,0,1,0-1.768Zm3.425,90.6a3.845,3.845,0,1,1,3.845-3.845A3.848,3.848,0,0,1,34.985,97.935ZM55.647,87.107H14.1a.443.443,0,0,1-.442-.442v-72.7a.443.443,0,0,1,.442-.442H55.647a.443.443,0,0,1,.442.442v72.7A.443.443,0,0,1,55.647,87.107Z" transform="translate(-10.125 -2.25)" fill="#fc7e2f"/></svg>