<svg xmlns="http://www.w3.org/2000/svg" width="67.852" height="67.852" viewBox="0 0 67.852 67.852"><path d="M57.689,12.11A33.634,33.634,0,0,0,4.771,52.685L0,70.1l17.826-4.68A33.521,33.521,0,0,0,33.9,69.511h.015c18.523,0,33.941-15.085,33.941-33.623A33.755,33.755,0,0,0,57.689,12.11ZM33.911,63.847a27.9,27.9,0,0,1-14.237-3.892l-1.015-.606L8.088,62.12,10.9,51.806l-.666-1.06A28,28,0,1,1,62.172,35.888,28.259,28.259,0,0,1,33.911,63.847ZM49.238,42.916c-.833-.424-4.968-2.454-5.74-2.726-.772-.288-1.333-.424-1.893.424s-2.166,2.726-2.666,3.3c-.485.56-.984.636-1.817.212-4.937-2.469-8.179-4.407-11.435-10-.863-1.484.863-1.378,2.469-4.589a1.557,1.557,0,0,0-.076-1.469c-.212-.424-1.893-4.559-2.59-6.24-.682-1.636-1.378-1.409-1.893-1.439-.485-.03-1.045-.03-1.605-.03a3.112,3.112,0,0,0-2.242,1.045,9.441,9.441,0,0,0-2.938,7.012c0,4.135,3.014,8.133,3.423,8.694.424.56,5.922,9.042,14.358,12.692,5.331,2.3,7.421,2.5,10.087,2.105,1.621-.242,4.968-2.03,5.664-4a7.027,7.027,0,0,0,.485-4C50.632,43.537,50.071,43.325,49.238,42.916Z" transform="translate(0 -2.25)" fill="#25d366"/></svg>