<svg xmlns="http://www.w3.org/2000/svg" width="127.005" height="121.094" viewBox="0 0 127.005 121.094"><g transform="translate(-224.17 -171.055)"><circle cx="60.547" cy="60.547" r="60.547" transform="translate(227.272 171.055)" fill="rgba(252,126,47,0.31)" opacity="0.3"/><rect width="70.316" height="35.495" transform="translate(254.474 188.468)" fill="#33323d"/><rect width="114.347" height="23.364" transform="translate(233.57 233.746)" fill="#33323d"/><path d="M369.516,510.35H428.15l11.682,39.314H357.16Z" transform="translate(-112.65 -270.764)" fill="#fff"/><path d="M257.73,402.33v37.292h22.964V418.057h80.784v21.565h22.964V402.33Z" transform="translate(-33.267 -182.513)" fill="#504f60"/><rect width="120.863" height="12.131" transform="translate(230.312 219.817)" fill="#33323d" opacity="0.1"/><circle cx="1.797" cy="1.797" r="1.797" transform="translate(342.864 224.086)" fill="#8ccf4d" opacity="0.8"/><circle cx="1.797" cy="1.797" r="1.797" transform="translate(334.776 224.086)" fill="#fa5959" opacity="0.8"/><rect width="65.15" height="38.639" transform="translate(257.058 178.93)" fill="#fff"/><circle cx="0.146" cy="0.146" r="0.146" transform="translate(224.17 205.876)" fill="#e6e8ec"/><circle cx="0.243" cy="0.243" r="0.243" transform="translate(232.724 210.212)" fill="#e6e8ec"/></g></svg>