<svg xmlns="http://www.w3.org/2000/svg" width="109.115" height="131.712" viewBox="0 0 109.115 131.712"><g transform="translate(-99.886 -86.644)"><circle cx="46.023" cy="46.023" r="46.023" transform="translate(99.886 117.289)" fill="rgba(252,126,47,0.45)" opacity="0.3"/><path d="M278.4,744.687a2.072,2.072,0,0,0,.34,1.19,4.541,4.541,0,0,0,3.612,1.872,34.739,34.739,0,0,0,4.212-.234c.421-.018.842-.021,1.261-.045a22.273,22.273,0,0,0,6.318-1.667c.337-.124.729-.324.748-.679a.835.835,0,0,0-.348-.621,3.571,3.571,0,0,0-.9-.574c-1.143-.5-2.512-.371-3.6-.99-.24-.137-.458-.305-.708-.419a3.016,3.016,0,0,0-.916-.211,14.009,14.009,0,0,0-4.075.134,28.526,28.526,0,0,1-3.072.563,3.925,3.925,0,0,1-1.177-.076c-.263-.061-.6-.3-.848-.14s-.39.661-.508.885A2.572,2.572,0,0,0,278.4,744.687Z" transform="translate(-160.276 -531.391)" fill="#3f3d56"/><path d="M278.4,744.687a2.072,2.072,0,0,0,.34,1.19,4.541,4.541,0,0,0,3.612,1.872,34.739,34.739,0,0,0,4.212-.234c.421-.018.842-.021,1.261-.045a22.273,22.273,0,0,0,6.318-1.667c.337-.124.729-.324.748-.679a.835.835,0,0,0-.348-.621,3.571,3.571,0,0,0-.9-.574c-1.143-.5-2.512-.371-3.6-.99-.24-.137-.458-.305-.708-.419a3.016,3.016,0,0,0-.916-.211,14.009,14.009,0,0,0-4.075.134,28.526,28.526,0,0,1-3.072.563,3.925,3.925,0,0,1-1.177-.076c-.263-.061-.6-.3-.848-.14s-.39.661-.508.885A2.572,2.572,0,0,0,278.4,744.687Z" transform="translate(-160.276 -531.391)" opacity="0.05"/><path d="M309.718,752.182a2.053,2.053,0,0,0,.34,1.19,4.538,4.538,0,0,0,3.612,1.872,34.734,34.734,0,0,0,4.212-.234c.421-.018.84-.021,1.261-.045a22.271,22.271,0,0,0,6.318-1.666c.337-.126.729-.324.748-.682a.829.829,0,0,0-.348-.619,3.5,3.5,0,0,0-.9-.574c-1.143-.5-2.512-.374-3.6-.992-.24-.134-.458-.305-.708-.416a3.1,3.1,0,0,0-.916-.213,14.009,14.009,0,0,0-4.075.137,27.86,27.86,0,0,1-3.072.561,3.835,3.835,0,0,1-1.177-.074c-.263-.061-.6-.3-.848-.14s-.392.661-.508.885A2.53,2.53,0,0,0,309.718,752.182Z" transform="translate(-183.35 -536.912)" fill="#3f3d56"/><path d="M281.474,382.669a1.382,1.382,0,0,0-.5-.658c-.55-.305-1.2.263-1.44.835s-.319,1.272-.79,1.685c-.287.263-.682.358-.977.606a2.527,2.527,0,0,0-.437,2.422c.582,3.159,1.6,6.229,2.006,9.412a33.347,33.347,0,0,0,.527,3.739,3.526,3.526,0,0,0,1.053,1.922,1.6,1.6,0,0,0,2.04.071,23.4,23.4,0,0,1-1.445-8.306c.016-1.843.263-3.686.313-5.55.055-1.627-.026-3.257-.108-4.884a3.035,3.035,0,0,0-.232-1.219,1.053,1.053,0,0,0-.993-.624" transform="translate(-159.413 -265.951)" fill="#fbbebe"/><circle cx="6.627" cy="6.627" r="6.627" transform="translate(127.255 91.073)" fill="#cb8c8e"/><circle cx="6.648" cy="6.648" r="6.648" transform="translate(136.164 104.326)" fill="#fbbebe"/><path d="M358.829,381.638c.058.527.263,1.14.766,1.274a5.631,5.631,0,0,0,.7.039,1.2,1.2,0,0,1,.866.669,2.145,2.145,0,0,1,.182,1.114,3.507,3.507,0,0,1-.542,1.627,4.673,4.673,0,0,1-2.438,1.785,13.141,13.141,0,0,1-3.017.555,3.606,3.606,0,0,1-1.366-.042,2.9,2.9,0,0,1-.79-.4,7.8,7.8,0,0,1-1.94-1.859,4.66,4.66,0,0,1-.835-1.709,2.57,2.57,0,0,1,.245-1.843.908.908,0,0,1,.442-.419c.563-.2,1.074.495,1.672.511a1.291,1.291,0,0,0,1.053-.832,5.615,5.615,0,0,1,.619-1.269,2.732,2.732,0,0,1,1.448-.753,9.062,9.062,0,0,1,2.949-.484c.5.05.174.35.058.713A3.2,3.2,0,0,0,358.829,381.638Z" transform="translate(-213.282 -264.228)" fill="#fbbebe"/><path d="M357.128,399.077c.808-.363,1.256-1.24,1.977-1.759a9.269,9.269,0,0,1,2.053-.866,5.988,5.988,0,0,0,1.9-1.211,5.157,5.157,0,0,1,1.58-1.285,2.459,2.459,0,0,1,1.49,0,5.045,5.045,0,0,1,3.028,2.793,15.023,15.023,0,0,1,1.074,4.1l.342,2.106a19.343,19.343,0,0,1,.366,3.907,6.5,6.5,0,0,1-1.2,3.686,7.2,7.2,0,0,0-.761,1.461,2.23,2.23,0,0,0-.224.748,4.1,4.1,0,0,0,.061.666c.111,1.132-.527,2.188-.774,3.3a9.5,9.5,0,0,0-.116,2.256.553.553,0,0,0,.058.284.527.527,0,0,0,.224.179c.174.092.353.179.527.263a19.724,19.724,0,0,1-4.426.469c-2.609-.06-5.155-.79-7.748-1.093a24.54,24.54,0,0,1,.3-3.528,14.3,14.3,0,0,0-.145-2.322,28.166,28.166,0,0,1,.061-6.318c.089-.737.211-1.472.245-2.214.039-.879-.039-1.761.024-2.633.061-.835.263-1.661.284-2.5A.432.432,0,0,0,357.128,399.077Z" transform="translate(-217.847 -274.73)" fill="#f4f6fb"/><path d="M290.75,482.627c2.755.014,5.184-.152,7.931.017a14.564,14.564,0,0,0,2.165,2.123c3.766,3.379,6.564,7.659,10.934,10.388a19.157,19.157,0,0,1,2.66,1.764,10.055,10.055,0,0,1,1.577,1.9c2.66,3.883,4.657,8.2,8.134,11.539,2.947,2.827,4.522,6.6,6.261,10.139a63.555,63.555,0,0,1,2.394,6.608,13.486,13.486,0,0,0,3.79,5.978c1.442,1.2,3.349,2.064,4.2,3.65a14.177,14.177,0,0,1,.625,1.569,8.528,8.528,0,0,0,6.272,4.943c.774.152.42,1.305.5,2.012.109.965,1.085,1.65,2.037,2.114a15.461,15.461,0,0,0,4.652,1.4c1,.136,2.181.269,2.66,1.06a1.62,1.62,0,0,1,.215.9c-.035,1.593-1.7,2.853-3.458,3.167a12.258,12.258,0,0,1-5.256-.564,2.192,2.192,0,0,0-.939-.112,2.323,2.323,0,0,0-1.136.785,8.4,8.4,0,0,1-8.37,1.781,11.61,11.61,0,0,0-2.793-.9c-1.527-.128-2.907.728-4.221,1.427s-2.974,1.3-4.327.656a4.52,4.52,0,0,0-1.33-.6c-.737-.076-1.394.495-2.128.476-.825-.014-1.391-.713-1.942-1.26a7.485,7.485,0,0,0-4.272-2.052,2.242,2.242,0,0,0-.934.024,2.632,2.632,0,0,0-.939.613,3.981,3.981,0,0,1-2.63,1.151c-2.189-.069-3.49-2.834-5.668-2.644-2.841-1.189-6.357-.575-9.471-.238s-6.564.435-9.059-1.265c-1.314-.9-2.2-2.2-3.431-3.2-1.936-1.574-4.548-2.261-7.067-2.9-3.99-1.018-8.134-2.045-12.235-1.491a10.152,10.152,0,0,1-2.224.174,2.074,2.074,0,0,1-1.763-1.06,1.865,1.865,0,0,1-.074-.989c.386-2.692,3.24-4.713,3.6-7.406a7.913,7.913,0,0,1,1.843-3.612,30.532,30.532,0,0,0,1.992-3.07,61.424,61.424,0,0,0,3.91-7.266,57.882,57.882,0,0,0,2.564-8.158c.692-2.656,1.021-5.376,1.519-8.068a57.52,57.52,0,0,1,1.495-5.8c1.676-5.668,3.362-11.37,6.117-16.687A24.437,24.437,0,0,0,290.75,482.627Z" transform="translate(-148.761 -338.891)" fill="#f4f6fb"/><path d="M277.515,531.68c-.869.95-.671,2.462-.163,3.644a13.161,13.161,0,0,1,1.422,3.57c.047.426.021.858.095,1.282.055.305.158.6.237.9a10.122,10.122,0,0,1,.221,1.153c.279,1.875.469,3.765.569,5.66.145,2.68.108,5.368.071,8.053-.053,3.757-1.843,7.274-2.714,10.928a9.455,9.455,0,0,0-.3,1.727,11.239,11.239,0,0,0,.229,2.314,37.984,37.984,0,0,1-.461,14.422,2.86,2.86,0,0,1,1.15,2.648,10.562,10.562,0,0,0,5.11.05,23.876,23.876,0,0,1,2.9-1.132c.79-.145,1.7-.071,2.262-.645a2.4,2.4,0,0,0,.484-.921c1.927-5.608,1.387-11.713,1.279-17.639-.058-3.186,0-6.374-.121-9.557a74,74,0,0,0-2.654-16.776,28.777,28.777,0,0,0-2.9-7.6,3.97,3.97,0,0,0-1.206-1.358,4.483,4.483,0,0,0-1.859-.492C279.824,531.764,278.858,531.833,277.515,531.68Z" transform="translate(-159.04 -376.28)" fill="#3f3d56"/><path d="M288.622,585.327a2.412,2.412,0,0,1-.484.919c-.558.577-1.474.5-2.261.648-.1.018-.2.042-.3.068-.9.24-1.709.769-2.6,1.053a10.737,10.737,0,0,1-5.113-.05,2.864,2.864,0,0,0-1.15-2.651,37.972,37.972,0,0,0,.463-14.419,11.057,11.057,0,0,1-.232-2.314,9.643,9.643,0,0,1,.3-1.727c.866-3.657,2.662-7.174,2.714-10.931.037-2.685.074-5.373-.068-8.053q-.155-2.843-.571-5.66a10.709,10.709,0,0,0-.219-1.153c-.082-.3-.184-.592-.237-.9-.076-.421-.05-.856-.1-1.282a13.059,13.059,0,0,0-1.422-3.567,5.28,5.28,0,0,1-.411-1.532,2.633,2.633,0,0,1,.574-2.106c.9.1,1.632.1,2.422.132.387.016.79.042,1.229.092a4.4,4.4,0,0,1,1.861.492,3.949,3.949,0,0,1,1.2,1.358c.142.229.276.461.405.7a31.8,31.8,0,0,1,2.491,6.9,74.025,74.025,0,0,1,2.654,16.776c.134,3.183.063,6.371.121,9.559C290.013,573.617,290.55,579.717,288.622,585.327Z" transform="translate(-159.04 -376.272)" opacity="0.05"/><path d="M306.729,532.763v1.385q-.018,6.671-.034,13.34a52.9,52.9,0,0,1-.19,5.484c-.466,4.739-2.2,9.328-2.014,14.072a43.144,43.144,0,0,1-.429,10.312c-.263,1.3-.648,2.57-.837,3.878a7.324,7.324,0,0,0,.35,3.907,6.539,6.539,0,0,1,.969,2.633,2.583,2.583,0,0,1-1.245,1.969,5.918,5.918,0,0,1-2.28.761,17.5,17.5,0,0,1-3.036.234c-1.456-.016-3.115-.334-3.867-1.58a3.755,3.755,0,0,1-.224-2.851c.029-.111.058-.219.09-.326.247-.829.6-1.627.79-2.469a6.874,6.874,0,0,0-.282-3.994c-.09-.237-.371-.685-.624-.656a10.738,10.738,0,0,1-.527-3.294l-.371-7.556a19.482,19.482,0,0,1,.179-4.923c.263-1.316.824-2.569.982-3.9a12.918,12.918,0,0,0-.013-2.409,106.964,106.964,0,0,0-1.6-12.3,1.474,1.474,0,0,0-.2-.584c-.174-.242-.477-.355-.69-.566-.448-.437-.405-1.15-.511-1.769a9.418,9.418,0,0,0-1.5-3.017,11.057,11.057,0,0,1-1.482-5.152,10.811,10.811,0,0,1,.208-2.556c.021-.113.047-.226.074-.34a68.854,68.854,0,0,1,17.149,1.053,1.4,1.4,0,0,1,1.069.569A1.424,1.424,0,0,1,306.729,532.763Z" transform="translate(-167.439 -375.299)" fill="#3f3d56"/><path d="M470.676,598.906a152.606,152.606,0,0,1,7.93,15.256c1.83,4.278,3.33,8.835,6.4,12.332,2.875,3.272,6.845,5.315,10.744,7.282l-3.491-3.075c-3.5-3.093-7.082-6.274-9.307-10.383a59.38,59.38,0,0,1-2.9-7.066,64.8,64.8,0,0,0-9.644-17.018A48.012,48.012,0,0,0,466.78,592C467.673,594.369,469.418,596.694,470.676,598.906Z" transform="translate(-299.063 -420.719)" fill="#e3e8f4"/><path d="M371.2,584.152c.247,1.316.392,2.633.724,3.92a27.965,27.965,0,0,0,1.2,3.4l5.55,13.832c-.047-1.88-1.053-3.58-1.693-5.344-.79-2.167-1.074-4.476-1.719-6.7-.527-1.806-1.29-3.53-1.843-5.329-.769-2.535-1.093-5.184-1.7-7.764a56.77,56.77,0,0,0-2.035-6.582,6.417,6.417,0,0,0-1.6-2.775,2.259,2.259,0,0,0-2.946-.142c-1.082,1.072.558,1.743,1.1,2.441a26.174,26.174,0,0,1,4.96,11.057Z" transform="translate(-223.914 -404.642)" fill="#e3e8f4"/><path d="M406.163,505.3a5.047,5.047,0,0,1,.763.99,13.593,13.593,0,0,0,.79,1.7,16.562,16.562,0,0,0-2.243-2.548c-.505-.434-1.053-.808-1.561-1.243-.387-.332-2.082-1.769-1.745-2.259A15.7,15.7,0,0,1,406.163,505.3Z" transform="translate(-251.428 -354.369)" fill="#e3e8f4"/><path d="M319.762,316.962a3.789,3.789,0,0,1-.682,1.485,9.5,9.5,0,0,0-1.356,4.594,9.216,9.216,0,0,0,.063,1.424c.021.176.026.4-.126.49a.442.442,0,0,1-.263.034c-.179-.016-.353-.037-.527-.066-2.814-.45-5.279-2.369-8.111-2.854a1.353,1.353,0,0,0,.724-.856,3.847,3.847,0,0,0,.171-.653c.042-.234.074-.469.1-.7a30.352,30.352,0,0,0-.174-4.976c-.108-2.006,2.369-1.345,3.823-1.372a12.049,12.049,0,0,1,3.48.276,4.082,4.082,0,0,1,2.683,2.077A2.106,2.106,0,0,1,319.762,316.962Z" transform="translate(-182.645 -215.49)" fill="#cb8c8e"/><path d="M319.687,342.615a.443.443,0,0,1-.263.034c-.179-.016-.353-.037-.527-.066-.242-.226-.477-.463-.7-.711a15.386,15.386,0,0,0-1.611-1.724,5.592,5.592,0,0,0-3.291-1.174,10.824,10.824,0,0,1-1.785-.1,3.849,3.849,0,0,0,.171-.653c.042-.234.074-.469.1-.7a8.824,8.824,0,0,1,1-.071,4.783,4.783,0,0,1,1.179-.024,6.023,6.023,0,0,1,1.809.763,21.54,21.54,0,0,1,2.425,1.253c.232.163.453.342.674.527.3.245.6.492.9.734a9.217,9.217,0,0,0,.063,1.424C319.835,342.3,319.84,342.523,319.687,342.615Z" transform="translate(-184.671 -233.15)" fill="#e3e8f4"/><path d="M298.86,532.756v1.385c-1.1.032-2.214.192-3.3.263-1.024.074-2.051.076-3.078.063a8.939,8.939,0,0,1-2.385-.263c-.561-.163-1.087-.432-1.645-.6a7.925,7.925,0,0,0-3.278-.153c-.906.105-1.819.263-2.722.345a3.654,3.654,0,0,1-1.738-.179,3.23,3.23,0,0,1-.448-.247,6.086,6.086,0,0,0-.7-.4,4.115,4.115,0,0,0-2.093-.174,2.633,2.633,0,0,1,.574-2.106c.9.1,1.632.1,2.422.132.021-.113.047-.226.074-.34a68.851,68.851,0,0,1,17.149,1.053,1.4,1.4,0,0,1,1.069.569A1.425,1.425,0,0,1,298.86,532.756Z" transform="translate(-159.57 -375.291)" opacity="0.1"/><path d="M280.429,341.213a2.321,2.321,0,0,0-1.551.653.79.79,0,0,0-.2.424,3.547,3.547,0,0,0,.142.727,1.7,1.7,0,0,1-.242.906,7.047,7.047,0,0,1-1.432,2.188c-.263.245-.563.448-.829.687a7.333,7.333,0,0,0-.829.932,6.051,6.051,0,0,0-1.329,2.29c-.355,1.5-1.1,2.922-1.58,4.391a9.5,9.5,0,0,0-.527,4.555c.124.721.374,1.414.548,2.125.279,1.14.358,2.319.653,3.454.187.708.455,1.393.658,2.106a11.473,11.473,0,0,1,.35,4.71c-.2,1.44.134,2.972-.448,4.3a16.234,16.234,0,0,1-.79,1.432,19.982,19.982,0,0,0-.993,2.106l-1.624,3.833a22.265,22.265,0,0,0-.85,2.211,20.4,20.4,0,0,0-.584,6.845.29.29,0,0,1-.045.205c-.05.053-.163.037-.166-.034-.021.132-.105.361-.124.492,1.382.6,3.083-.308,4.46.305.4.179.74.477,1.143.65a3.622,3.622,0,0,0,1.738.182c2.009-.166,4.07-.79,6-.195.561.171,1.085.44,1.645.6a8.961,8.961,0,0,0,2.388.263c1.027.016,2.054.013,3.078-.063,2.2-.161,4.518-.642,6.548.232a2.356,2.356,0,0,0,.732-2.04q.074-2.29.147-4.578l.545-16.836a16.85,16.85,0,0,0-.129-3.475,16.627,16.627,0,0,0-2.633-5.737l-5.236-8.425c-.348-.558,0-1.182.24-1.8a11.623,11.623,0,0,0,.674-2.733,2.452,2.452,0,0,0-.387-1.972,8.444,8.444,0,0,0-.935-.7,4.35,4.35,0,0,1-.964-1.345,8.687,8.687,0,0,0-3.078-3.207A6.51,6.51,0,0,0,280.429,341.213Z" transform="translate(-153.087 -235.902)" fill="#3f3d56"/><path d="M322.773,368.82c-1.861.513-3.014,2.4-3.525,4.265a16.119,16.119,0,0,0,.09,8.009,44.912,44.912,0,0,0,2.8,7.582A18.209,18.209,0,0,0,323,390.44a8.449,8.449,0,0,0,3.865,3.509,7.14,7.14,0,0,0,5.179.229,3.043,3.043,0,0,0,.869-.442c.932-.716,1.077-2.043,1.145-3.217l.234-4.115a2.072,2.072,0,0,0-.032-.65,2.37,2.37,0,0,0-.477-.79,9.842,9.842,0,0,1-1.685-3.349,17.028,17.028,0,0,0-.734-2.541c-.221-.484-.527-.927-.766-1.4a13.421,13.421,0,0,1-.961-3.3q-.324-1.469-.774-2.909a4.9,4.9,0,0,0-.671-1.493,5.078,5.078,0,0,0-3.2-1.58,3.687,3.687,0,0,0-1.732-.084,3.83,3.83,0,0,0-1.619,1.156" transform="translate(-190.028 -255.869)" opacity="0.1"/><path d="M323.773,367.82c-1.861.513-3.014,2.4-3.525,4.265a16.119,16.119,0,0,0,.09,8.009,44.908,44.908,0,0,0,2.8,7.582A18.213,18.213,0,0,0,324,389.44a8.449,8.449,0,0,0,3.865,3.509,7.14,7.14,0,0,0,5.179.229,3.043,3.043,0,0,0,.869-.442c.932-.716,1.077-2.043,1.145-3.217l.234-4.115a2.071,2.071,0,0,0-.032-.65,2.369,2.369,0,0,0-.477-.79,9.841,9.841,0,0,1-1.685-3.349,17.033,17.033,0,0,0-.734-2.541c-.221-.484-.527-.927-.766-1.4a13.419,13.419,0,0,1-.961-3.3q-.324-1.469-.774-2.909a4.9,4.9,0,0,0-.671-1.493,5.078,5.078,0,0,0-3.2-1.58,3.685,3.685,0,0,0-1.732-.084,3.829,3.829,0,0,0-1.619,1.156" transform="translate(-190.765 -255.133)" fill="#3f3d56"/><path d="M402.221,398.722a6.2,6.2,0,0,1-.348-4.452c1.032.263,1.316,1.785,2.369,2.056.155.039.321.047.479.082a2.7,2.7,0,0,1,1.64,1.448,7.79,7.79,0,0,1,1.1,3.328,5.574,5.574,0,0,1-.79,3.383c.026-.039-1.843-1.956-2-2.154q-.492-.577-.964-1.177a8.442,8.442,0,0,1-.887-1.193c-.089-.169-.108-.363-.187-.542C402.5,399.235,402.35,398.983,402.221,398.722Z" transform="translate(-251.053 -275.046)" fill="#cb8c8e"/><path d="M324.31,423.229a11.5,11.5,0,0,1-3.272,6.679,1.974,1.974,0,0,1-1.469.734c-.608-.063-1.027-.616-1.461-1.053a28.331,28.331,0,0,0-2.72-1.951,13.866,13.866,0,0,1-1.285-1.2,29.91,29.91,0,0,1-3.617-4.168,23.759,23.759,0,0,0-1.769-2.57c-.545-.619-1.2-1.129-1.774-1.719a4.123,4.123,0,0,1-1.216-2.106c-.145-.858-1.053-1.416-1.624-2.075a7.308,7.308,0,0,1-1.593-6.1,1.4,1.4,0,0,1,.727-1.129,1.176,1.176,0,0,1,.542-.034,4.633,4.633,0,0,1,2.654,1.94,16.228,16.228,0,0,1,1.356,1.79,15.9,15.9,0,0,1,1.669,4.71c.229.95,1.177,1.653,1.859,2.354l1.711,1.756c.408.419.816.84,1.264,1.216a16.425,16.425,0,0,0,4.16,2.369,5.279,5.279,0,0,1,.579-1.348,1.751,1.751,0,0,1,1.179-.79,2.645,2.645,0,0,1,1.843.79l2.014,1.58C324.178,422.992,324.326,423.092,324.31,423.229Z" transform="translate(-177.941 -284.067)" fill="#fbbebe"/><path d="M374.909,408.543a2.91,2.91,0,0,1,.577.911,5.981,5.981,0,0,1,.587,2.972,8.878,8.878,0,0,1-.363,1.624l-.627,2.156a100.474,100.474,0,0,1-3.267,9.92c-1.082-1.4-2.975-1.827-4.512-2.7a1.272,1.272,0,0,1-.4-.308,1.132,1.132,0,0,1-.2-.674,5.036,5.036,0,0,1,.416-1.88c.958-2.572,2.288-5.084,2.443-7.822a14.717,14.717,0,0,1,.1-1.524,4.323,4.323,0,0,1,2.027-2.922A2.83,2.83,0,0,1,374.909,408.543Z" transform="translate(-225.337 -285.093)" opacity="0.1"/><path d="M373.91,406.249a2.941,2.941,0,0,1,.577.911,5.981,5.981,0,0,1,.587,2.972,8.828,8.828,0,0,1-.363,1.645l-.627,2.156a100.462,100.462,0,0,1-3.267,9.92c-1.082-1.4-2.975-1.827-4.512-2.7a1.263,1.263,0,0,1-.4-.305,1.145,1.145,0,0,1-.2-.674,5.04,5.04,0,0,1,.416-1.882c.958-2.572,2.288-5.081,2.443-7.822a14.609,14.609,0,0,1,.1-1.522,4.32,4.32,0,0,1,2.027-2.925A2.819,2.819,0,0,1,373.91,406.249Z" transform="translate(-224.6 -283.41)" fill="#f4f6fb"/><path d="M353.967,326.49a3.643,3.643,0,0,1,.761,2.138,14.015,14.015,0,0,1-.384,5.918,7.124,7.124,0,0,1-3.752,4.418c2.548.413,5.576.671,7.3-1.251a5.553,5.553,0,0,1,1.04-1.1c1.83-1.153,4.152,1.888,6.137,1.024,1.316-.569,1.411-2.348,1.316-3.77l-.361-5.265c-.184-2.688-.419-5.529-1.959-7.73a11.41,11.41,0,0,0-5.981-3.949,7.624,7.624,0,0,0-5.136-.205c-2.067.848-6.055,4.233-6.032,6.737C346.964,327.18,352.23,324.652,353.967,326.49Z" transform="translate(-210.758 -217.644)" fill="#3f3d56"/><path d="M364.53,415.725a2.633,2.633,0,0,0,.874-.113c.448-.166.79-.582,1.272-.65.242-.034.553,0,.658-.229a.911.911,0,0,0,.034-.329c.037-.64.84-.861,1.382-1.2a4.047,4.047,0,0,0,.9-.864l1.869-2.209a1.4,1.4,0,0,1,.711-.54,1.269,1.269,0,0,1,.924.263,7.222,7.222,0,0,1,3.191,6.7,1.135,1.135,0,0,1-.137.513c-.292.458-.979.348-1.5.511-.992.311-1.3,1.6-2.146,2.2-.382.263-.853.376-1.224.65a8.33,8.33,0,0,0-.993,1.124,6.269,6.269,0,0,1-2,1.316l-2.2,1.074a8.655,8.655,0,0,1-1.351.563,8.509,8.509,0,0,1-2.454.208l-1.614-.021a.951.951,0,0,1-.527-.105.882.882,0,0,1-.234-.263,5.792,5.792,0,0,1-.7-4.32,8.6,8.6,0,0,1,1.688-3.82C361.7,415.38,363.488,415.746,364.53,415.725Z" transform="translate(-219.752 -286.325)" fill="#3f3d56"/><path d="M312.108,279.163a1.2,1.2,0,0,1,.608-1.28l2-1.5-.411-.6.771-.661a.561.561,0,0,0-.569-.221c.121-.814-.574-1.5-1.235-1.985A8.952,8.952,0,0,0,308.73,271c-.808-.053-1.619.063-2.427,0-1.09-.068-2.148-.437-3.241-.479a2.889,2.889,0,0,0-2.777,1.369,12.97,12.97,0,0,0-.369,1.353,6.683,6.683,0,0,1-1.938,2.4,3.21,3.21,0,0,0-1.222,2.722,3.585,3.585,0,0,0,.376.935l4.081,7.88a1.814,1.814,0,0,1,1.372-.945,8.514,8.514,0,0,1,2,.305,3.159,3.159,0,0,0,2.714-1.053c.9-1.037,1.119-3.686,2.683-3.949.553-.095,1.437.6,1.919.326C312.464,281.551,312.119,279.747,312.108,279.163Z" transform="translate(-173.775 -183.875)" fill="#3f3d56"/><g transform="translate(136.148 98.818)" opacity="0.1"><path d="M352.135,338.456a7.151,7.151,0,0,0,3.752-4.42,13.981,13.981,0,0,0,.384-5.918,3.625,3.625,0,0,0-.761-2.138c-1.738-1.843-7,.69-7.05-3.012-.029-2.135,2.875-4.91,5-6.208a4.819,4.819,0,0,0-.561.187c-2.067.848-6.055,4.236-6.032,6.737.047,3.7,5.313,1.177,7.05,3.014a3.636,3.636,0,0,1,.761,2.138,14,14,0,0,1-.384,5.916,7.136,7.136,0,0,1-3.752,4.42c2.248.363,4.868.605,6.64-.661A12.755,12.755,0,0,1,352.135,338.456Z" transform="translate(-346.87 -316.76)"/><path d="M397.138,389.509a2.338,2.338,0,0,0-.508.458c1.614.105,3.449,1.985,5.065,1.282a1.817,1.817,0,0,0,.716-.563C400.642,390.617,398.71,388.519,397.138,389.509Z" transform="translate(-383.53 -370.161)"/></g><g transform="translate(123.04 89.836)" opacity="0.1"><path d="M363.187,282.811c-.039-.058-.082-.116-.124-.171a1.481,1.481,0,0,1-.013.182A.592.592,0,0,1,363.187,282.811Z" transform="translate(-345.682 -282.64)"/><path d="M315.411,285.724a.561.561,0,0,0-.569-.221,1.277,1.277,0,0,0-.053-.592l-.545.466.411.6-2,1.506a1.2,1.2,0,0,0-.608,1.279c0,.584.355,2.388-.213,2.712-.479.276-1.366-.421-1.917-.326-1.564.263-1.782,2.9-2.683,3.949a3.159,3.159,0,0,1-2.714,1.053,8.519,8.519,0,0,0-2-.3,1.824,1.824,0,0,0-1.374.945l-4.07-7.864v.058a3.685,3.685,0,0,0,.379.935l4.075,7.864a1.824,1.824,0,0,1,1.374-.945,8.511,8.511,0,0,1,2,.305,3.159,3.159,0,0,0,2.714-1.053c.9-1.037,1.119-3.686,2.683-3.949.55-.095,1.437.6,1.917.326.569-.324.224-2.127.213-2.712a1.6,1.6,0,0,1,.116-.79,1.58,1.58,0,0,1,.492-.5l2-1.5-.411-.6Z" transform="translate(-297.08 -284.312)"/></g></g></svg>