<svg xmlns="http://www.w3.org/2000/svg" width="83.219" height="62.415" viewBox="0 0 83.219 62.415"><path d="M81.643,25.11a.978.978,0,0,1,1.577.764V59.113a7.8,7.8,0,0,1-7.8,7.8H7.8a7.8,7.8,0,0,1-7.8-7.8V25.89a.972.972,0,0,1,1.577-.764c3.641,2.828,8.468,6.42,25.047,18.464,3.43,2.5,9.216,7.769,14.986,7.737,5.8.049,11.7-5.331,15-7.737C73.191,31.546,78,27.938,81.643,25.11Zm-40.033,21c3.771.065,9.2-4.746,11.93-6.729C75.109,23.728,76.75,22.363,81.724,18.462a3.889,3.889,0,0,0,1.5-3.072V12.3a7.8,7.8,0,0,0-7.8-7.8H7.8A7.8,7.8,0,0,0,0,12.3V15.39a3.913,3.913,0,0,0,1.5,3.072c4.974,3.885,6.615,5.266,28.184,20.919C32.41,41.364,37.839,46.175,41.61,46.11Z" transform="translate(0 -4.5)" fill="#fc7e2f"/></svg>