<svg xmlns="http://www.w3.org/2000/svg" xmlns:xlink="http://www.w3.org/1999/xlink" width="465.715" height="388.19" viewBox="0 0 465.715 388.19"><defs><linearGradient id="a" x1="0.5" y1="1" x2="0.5" gradientUnits="objectBoundingBox"><stop offset="0" stop-color="gray" stop-opacity="0.251"/><stop offset="0.54" stop-color="gray" stop-opacity="0.122"/><stop offset="1" stop-color="gray" stop-opacity="0.102"/></linearGradient></defs><g transform="translate(-0.004 0)"><ellipse cx="47.579" cy="4.69" rx="47.579" ry="4.69" transform="translate(283.426 378.809)" fill="#fc7e2f" opacity="0.1"/><path d="M301.947,39.912c20.955-7.789,46.466-1.09,68.251,8.68,68.423,30.693,118.27,88.956,157.875,148.313,14.34,21.493,27.96,43.933,33.351,67.926,10.976,48.836-17.652,99.394-66.34,117.11-16.557,6.031-34.747,8.5-52.965,9.881-32.4,2.454-65.936,1.48-98.071-7.608-22.917-6.495-44.6-16.942-65.389-28.484C220.59,323.48,167.56,281.6,129.375,230.437,112.628,208,98.46,182.7,98.052,156.809s16.464-51.907,44.225-56.31c11.477-1.819,23.618.074,35.462,2.023,17.439,2.872,35.114,5.892,52.353,4.639,17.81-1.3,40.973-8.262,44.22-25.265C277.749,63.641,281.019,47.692,301.947,39.912Z" transform="translate(-98.04 -34.234)" fill="#fc7e2f" opacity="0.1"/><path d="M341.57,800.386s22.389-1.35,19.749,14.34a3.821,3.821,0,0,1-1.99,4.031s-.037-1.164-2.3-.77a10.116,10.116,0,0,1-2.431.121,5.07,5.07,0,0,1-2.974-1.229h0s-6.3-2.6-8.74-12.887c0,0-1.814-2.241-1.74-2.821l3.776,1.614s-1.29,2.728-.274,4.992c0,0,.121-4.89.849-4.778.144.023,1.962.928,1.962.928s-2.222,4.746-.547,8.2c0,0-.636-5.85,1.239-7.854l2.663,1.554s-2.6,4.9-.835,8.9c0,0-.464-6.138,1.392-8.527l2.412,1.856s-2.44,4.834-.951,8.156c0,0,.19-7.149,1.471-7.687a14.462,14.462,0,0,1,2.431,2.626s-1.67,3.507-.636,5.358c0,0,.636-4.76,1.16-4.783,0,0,2.1,3.155,2.32,5.317a11.48,11.48,0,0,0-1.814-5.618,6.332,6.332,0,0,1,3.22,1.665s-.329-2.231-3.734-2.426a14.6,14.6,0,0,0-2.2-2.538,13.789,13.789,0,0,1,5.446.631s-1.809-2.106-6.068-1.15l-2.38-1.939s4.467-.612,6.356.065c0,0-2.176-1.856-7-.506l-2.589-1.549a23.423,23.423,0,0,1,6.073-.524s-2.394-1.29-6.833.107l-1.856-.83s2.784-.547,3.6-.635.858-.311.858-.311a9.659,9.659,0,0,0-5.238.58S341.5,800.656,341.57,800.386Z" transform="translate(-228.363 -443.725)" fill="#fc7e2f"/><ellipse cx="15.847" cy="2.677" rx="15.847" ry="2.677" transform="translate(112.78 373.724)" fill="#fc7e2f" opacity="0.1"/><path d="M277.125,777.651s12.623-.761,11.134,8.086a2.148,2.148,0,0,1-1.118,2.273s-.023-.654-1.294-.431a5.629,5.629,0,0,1-1.369.065,2.811,2.811,0,0,1-1.679-.691h0s-3.544-1.471-4.936-7.27c0,0-1.021-1.266-.983-1.591l2.134.928a3.833,3.833,0,0,0-.158,2.816s.07-2.76.464-2.7c.083,0,1.109.534,1.109.534s-1.253,2.677-.306,4.639c0,0-.362-3.3.7-4.43l1.5.877s-1.461,2.783-.464,5.019c0,0-.255-3.461.784-4.806L284,782.03s-1.392,2.723-.533,4.6c0,0,.107-4.031.83-4.333a8.264,8.264,0,0,1,1.369,1.48s-.928,1.976-.357,3.02c0,0,.357-2.681.654-2.7a8.87,8.87,0,0,1,1.3,3,6.494,6.494,0,0,0-1.021-3.168,3.54,3.54,0,0,1,1.814.928s-.181-1.257-2.106-1.369a8.2,8.2,0,0,0-1.239-1.429,7.758,7.758,0,0,1,3.071.353s-1.021-1.188-3.424-.65l-1.341-1.095a11.1,11.1,0,0,1,3.586.037s-1.229-1.048-3.948-.283l-1.457-.877a13.262,13.262,0,0,1,3.419-.292,5.238,5.238,0,0,0-3.85.06l-1.044-.464s1.573-.311,2.032-.357.487-.176.487-.176a5.471,5.471,0,0,0-2.955.329A12.227,12.227,0,0,1,277.125,777.651Z" transform="translate(-193.91 -431.543)" fill="#fc7e2f"/><ellipse cx="8.935" cy="1.512" rx="8.935" ry="1.512" transform="translate(82.973 355.72)" fill="#fc7e2f" opacity="0.1"/><path d="M946.5,795.976s15.24-.928,13.453,9.742a2.616,2.616,0,0,1-1.354,2.746s-.028-.793-1.563-.524a6.867,6.867,0,0,1-1.656.079,3.411,3.411,0,0,1-2.023-.835h0s-4.287-1.768-5.952-8.773c0,0-1.234-1.526-1.183-1.916l2.57,1.095a4.625,4.625,0,0,0-.186,3.4s.084-3.331.575-3.247c.1,0,1.336.64,1.336.64s-1.512,3.247-.371,5.567c0,0-.431-3.98.844-5.344l1.809,1.053s-1.768,3.34-.566,6.063c0,0-.311-4.175.928-5.8l1.642,1.28s-1.661,3.289-.649,5.567c0,0,.135-4.862,1.007-5.233a10.009,10.009,0,0,1,1.652,1.786s-1.137,2.389-.432,3.651c0,0,.432-3.247.789-3.247a10.776,10.776,0,0,1,1.578,3.619,7.8,7.8,0,0,0-1.229-3.823,4.31,4.31,0,0,1,2.19,1.132s-.223-1.517-2.547-1.651a9.886,9.886,0,0,0-1.494-1.726,9.382,9.382,0,0,1,3.711.427s-1.234-1.429-4.133-.779l-1.619-1.322s3.039-.417,4.328.042c0,0-1.485-1.266-4.764-.343l-1.763-1.053a16.058,16.058,0,0,1,4.133-.357s-1.628-.877-4.639.074l-1.262-.566s1.9-.376,2.454-.431.585-.213.585-.213a6.587,6.587,0,0,0-3.563.394A15.439,15.439,0,0,1,946.5,795.976Z" transform="translate(-552.733 -441.365)" fill="#fc7e2f"/><ellipse cx="10.786" cy="1.823" rx="10.786" ry="1.823" transform="translate(393.471 366.228)" fill="#fc7e2f" opacity="0.1"/><path d="M786.626,468.415a33.114,33.114,0,0,1-.506-4.945c0-1.99-2.7-3.753-2.7-3.753s-1.67-3.864-2.783-4.435-4.551-5.627-4.551-5.627a4.6,4.6,0,0,0-1.035-2.728,39.215,39.215,0,0,1-2.816-4.249h0c-.464-.566-.232-.965-.928-4.263-.037-.172-.079-.339-.13-.5a.649.649,0,0,0-.074-.213,5.567,5.567,0,0,0,1.313-5.766,2.319,2.319,0,0,0-.659-1.021c-.784-.64-2.036-.376-2.844-.984l.858-3.795c.2-.928.311-2.1-.5-2.6a4.216,4.216,0,0,0-.956-.32,4.5,4.5,0,0,1-2.561-3.349,11.479,11.479,0,0,1-.279-4.175c.158-1.345.552-2.654.7-4a10.993,10.993,0,0,0-1.7-7.116,5.478,5.478,0,0,0-2.25-2.125c-.858-.385-1.856-.464-2.658-.928-1.726-1.1-1.638-3.711-3.015-5.21s-3.818-1.494-5.827-.979-4.008,1.392-6.068,1.174c-1.327-.148-2.57-.751-3.9-.891a4.111,4.111,0,0,0-1.141.051v-.042a2.475,2.475,0,0,0-2.12,1.656,2.535,2.535,0,0,0-.065.677c0,.543.13,1.109.139,1.628a1.55,1.55,0,0,1-.376,1.146c-.264.283-.654.431-.928.724a1.16,1.16,0,0,0-.339.854c0,.826,1.03,1.554,1.721,1.888h.028c-.186.186-.371.38-.543.58a12.219,12.219,0,0,0-3.071,8.114,12.386,12.386,0,0,0,7.534,11.31l-.1.3a17.322,17.322,0,0,1-.682,1.754,3.475,3.475,0,0,0-2.913.325,7.357,7.357,0,0,1-4.611.682c-.691-.172-7.887-1.081-8.466-.854s-1.726-.793-2.473.571-1.095,2.1-1.856,2.445-2.074,1.42-1.9,1.647-1.9,1.591-1.9,1.591-1.786,1.856-2.821,2.1a16.56,16.56,0,0,0-3.224,1.652L708.1,438.4s-1.9.288-1.322-1.021-1.039-2.955-1.039-2.955-3.224-6.536-3.224-7.887-2.649-7.107-2.649-7.107l-.325-.033-.148-.422c-.487-1.369-1.118-3.048-1.6-4.031-.928-1.879-1.5-2.074-1.5-2.074s-11.171-8.388-18.427-5.831,13.245,10.174,15.086,10.972a3.478,3.478,0,0,1,1.434,2.231,9.548,9.548,0,0,0-3.966,3.567s4.435,9.83,4.551,12.275,3.053,9.278,3.053,9.278,1.095,5.061,7.024,4.774c0,0,8.179,1.5,9.965,0s3.4-2.681,4.263-2.853a3.364,3.364,0,0,0,1.61-1.137s-2.7,17.049-4.031,18.529-13.05,20.621-8.842,24.045a84.072,84.072,0,0,0,10.535,6.959c.357.176,1.429-1.61,2.96-2.876v.988c.028,6.81.928,17.165,2.171,19.484,1.856,3.41,1.095,10,1.095,10a7.885,7.885,0,0,0,3.113.747c.056.223.121.464.181.7,1.016,3.837,2.663,9.77,3.5,11.347,1.266,2.389,2.185,9.951,2.185,9.951s.752,7.423.464,8.466a49.827,49.827,0,0,0,1.141,7.423h0c-.464,5.33-1.345,15.606-1.494,19.322h0v.269a1.129,1.129,0,0,1,0,.125v.227h0a3.469,3.469,0,0,0,.028.7,2.273,2.273,0,0,1-.079,1.058,18.463,18.463,0,0,1-1.248,2.978,14.2,14.2,0,0,0-.557,1.438,2.6,2.6,0,0,0-1.345,1.911c-.575,2.218-1.438,8.351-1.438,8.351s-.348,3.753-1.035,4.607-1.392,6.193,3.512,6.875,7.024-2.6,7.024-2.6l-.172-14.882v-.028a2.255,2.255,0,0,0,.255-.4v-.037c.033-.07.07-.144.1-.227l.042-.111.074-.181a.269.269,0,0,1,0-.065,9.834,9.834,0,0,0,.418-4.43v-.626a1.75,1.75,0,0,1,.028-.306v-.056l.028-.181v-.079a.342.342,0,0,1,.037-.186.2.2,0,0,1,0-.046c.046-.213.1-.464.162-.668v-.051l.07-.223h0c.07-.237.148-.464.232-.714v-.046a.652.652,0,0,1,.079-.218v-.028c.083-.227.172-.464.255-.659l.023-.06.074-.186.023-.056.176-.413h0L742,586.2s.752,3.127.348,3.864.464,3.809,1.034,3.864l-.533,3.864a59.117,59.117,0,0,0-.515,6.425c-.037.246-.074.464-.1.612a13.938,13.938,0,0,0,.52,5.052c4.546,5.377,9.965.418,9.965.418s.631-2.844,0-3.41-.348-2.617-.348-2.617.288-5.061.343-8.754-3.02-6.959-3.02-6.959l-.172.153c-.561-1.447-1.2-3.136-1.067-3.892.232-1.308-.636-15.119-.636-15.119a81.912,81.912,0,0,0,.2-11.134h0c.074-.626.144-1.243.213-1.856.348-2.969.631-5.507.742-6.838h0v-.158c.028-.357.042-.612.037-.733,0-.464,0-.993.046-1.573.107-1.6.357-3.373.357-3.373l1.206-7.335a22.93,22.93,0,0,1,2.25-5.567l.158-.251h0c.051-.088.1-.186.158-.288l.023-.042c.051-.1.107-.2.158-.306l.023-.042c.186-.366.385-.789.594-1.253,0-.037.032-.07.046-.107l.158-.353a.362.362,0,0,1,.06-.139c.023-.046.1-.237.148-.353a1.331,1.331,0,0,0,.06-.144c.06-.139.125-.283.186-.431l.088-.213c.042-.107.088-.213.135-.32l.111-.283c.032-.07.06-.139.088-.209l.125-.32c0-.046.042-.1.06-.144.329-.821.645-1.633.928-2.371h0c.088-.232.176-.464.255-.668,2.951.181,4.955.343,4.955.343a67.992,67.992,0,0,0,.631-11.023,40.963,40.963,0,0,1,.728-8.814c.042-.227.079-.431.116-.617l.079.065c1.443,1.137,2.477-2.616,2.477-2.616s-.39-3.5-.928-7.747l-.056-.422a21.807,21.807,0,0,0,2.519.385s.464-.042,1.1-.121a30.43,30.43,0,0,0,5.539,2.505l3.066-5.66a23.037,23.037,0,0,1,2.018-3.354c.928-1.137,4.2-4.774,4.147-5.456a19.2,19.2,0,0,1,2.245-6.37A14.064,14.064,0,0,0,786.626,468.415Zm-12.785,4.319c-1.211.51-2.361,3.354-2.417,4.208s-1.327,4.6-2.649,5.057c-1.22.418-3.549,2.561-3.92,2.9-.38.033-.812.084-1.262.158a44.211,44.211,0,0,0-1.327-7.154c-.928-1.707,1.016-7.163,1.016-7.163s.19-5.511,1.392-6.82.928-4.607.928-4.607.288-1.364.4-1.986,1.712,0,1.726,0h0s3.108,1.7,3.572,4.259,3.86,6.991,3.86,6.991-.519,1.536,0,2.32S775.052,472.224,773.841,472.734Z" transform="translate(-408.047 -226.428)" fill="url(#a)"/><path d="M707,452.667a9.278,9.278,0,0,1,9.278-4.37v6.639h-4.031l-3.155-.8Z" transform="translate(-424.493 -254.937)" fill="#4c4981"/><path d="M707,452.667a9.278,9.278,0,0,1,9.278-4.37v6.639h-4.031l-3.155-.8Z" transform="translate(-424.493 -254.937)" opacity="0.1"/><path d="M700.524,435.316l-4.941,3.461s-.042-.691-.167-1.638c-.246-1.791-.8-4.477-1.99-5-1.814-.8-22.008-8.4-14.845-10.953s18.153,5.822,18.153,5.822.566.195,1.471,2.064c.464.983,1.1,2.658,1.577,4.027C700.222,434.337,700.524,435.316,700.524,435.316Z" transform="translate(-408.437 -240.198)" fill="#ffdbac"/><path d="M713.13,431.774l.561-.264,1.577,1.8-1.29,2.751-2.2-.881.51-2.2Z" transform="translate(-381.573 -231.327)" fill="#4c4981"/><path d="M790.952,811s-1.42-.167-1.985,2.046-1.42,8.35-1.42,8.35-.339,3.744-1.021,4.6-1.359,6.184,3.461,6.861a6.98,6.98,0,0,0,6.922-2.593l-.172-14.878Z" transform="translate(-466.869 -449.427)" fill="#444053"/><path d="M824.287,812.44s3.034,3.247,2.978,6.931-.343,8.736-.343,8.736-.278,2.046.343,2.612,0,3.405,0,3.405-5.335,4.95-9.816-.417a14.192,14.192,0,0,1-.51-5.043c.362-1.976,1.373-10.86,1.373-10.86Z" transform="translate(-483.382 -450.202)" fill="#444053"/><path d="M816.642,662.6s-3.062,8.564-4.37,10.549a22.714,22.714,0,0,0-2.208,5.567l-1.192,7.316a40.8,40.8,0,0,0-.4,4.936c.056,1.647-2.951,25.64-2.951,25.64l-4.764,6.073s-2.1,4.254-1.758,6.031-.227,4.6-.928,5.446c0,0-.111,5.567-.283,6.806s.626,4.769,0,5.391-8.963.343-9.19-.682,1.021-5.957,1.021-5.957l.738-4.764s1.475-2.607,1.136-3.461.622-2.834.677-3.006,1.591-2.95,1.308-4.027,1.786-23.966,1.786-23.966l5.841-41.015Z" transform="translate(-468.221 -368.202)" fill="#ffdbac"/><path d="M816.642,662.613s-.464,1.29-1.1,2.983a57.728,57.728,0,0,1-3.271,7.566,23.014,23.014,0,0,0-2.213,5.567l-1.192,7.321a41.148,41.148,0,0,0-.394,4.936c0,.65-.436,4.792-.993,9.566-.858,7.3-1.958,16.075-1.958,16.075l-4.764,6.073s-.241.464-.543,1.2c-.6,1.392-1.443,3.651-1.215,4.815a8.792,8.792,0,0,1-.928,5.446s-.116,5.567-.283,6.806.626,4.764,0,5.391-8.963.343-9.19-.677,1.021-5.957,1.021-5.957l.738-4.769s1.475-2.607,1.132-3.461.626-2.834.682-3.006,1.591-2.951,1.308-4.027c-.218-.821.928-14.261,1.461-20.635.181-2,.3-3.308.3-3.308l5.024-35.285.408-2.844.408-2.885Z" transform="translate(-468.221 -368.213)" opacity="0.1"/><path d="M809.614,751.178c.051.626-8,1.536-9.153.854s0-9.134,0-9.134l.524-3.855c-.561-.06-1.415-3.122-1.021-3.86s-.339-3.855-.339-3.855l-1.336-4.175-.816-2.556c-1.327-2.927-3.247-11.278-4.44-17.513a50.713,50.713,0,0,1-1.123-7.395c.283-1.021-.464-8.452-.464-8.452s-.928-7.548-2.153-9.928c-.83-1.577-2.449-7.5-3.452-11.324-.51-1.962-.863-3.373-.863-3.373s8.573-.719,13.774-.97c2.389-.116,4.069-.13,3.874.065a7.055,7.055,0,0,0-.237,2.737c.023,3.892.566,10.74,1.141,12.581.793,2.551,1.587,10.206,1.248,10.948s-.227,5.674-.227,5.674a25.517,25.517,0,0,1,1,6.156,83.2,83.2,0,0,1-.195,11.083s.849,13.788.622,15.091,1.814,5.391,1.814,6.184.566,6.184.566,6.184S809.577,750.557,809.614,751.178Z" transform="translate(-466.297 -371.46)" fill="#ffdbac"/><path d="M823.145,465.169l-.974,1.053-.635.687-3.711,3.99-9.589,1.081-5.1-1.364-1.262-.339s0-2.561.227-5.632c.325-3.939,1.1-8.722,2.95-10.025a7.37,7.37,0,0,0,2.157-2.732,15.4,15.4,0,0,0,.928-2.292c.037-.1.065-.2.1-.3a25.635,25.635,0,0,0,.9-4.208s1.225-.677,2.927-1.466c4.44-2.074,12.108-4.936,9.441,1.466a25.035,25.035,0,0,0-1,2.876c-.042.144-.079.288-.111.427-.891,3.563-.3,5.725.362,6.917h0a4.32,4.32,0,0,0,.385.589,3.092,3.092,0,0,0,.645.654l1.1,7.01.093.58Z" transform="translate(-475.351 -251.161)" fill="#ffdbac"/><path d="M828.745,445.824c-.506,1.215.246-.993,0,0-2.023,1.438-6.787,5.534-9.464,5.534a7.436,7.436,0,0,1-3.9-1.03,25.3,25.3,0,0,0,1-4.5S832.434,436.972,828.745,445.824Z" transform="translate(-482.594 -251.555)" opacity="0.1"/><path d="M824.416,420.008a12.377,12.377,0,0,1-11.074,12.3c-.427.042-.858.07-1.294.07a12.368,12.368,0,1,1,12.368-12.368Z" transform="translate(-474.177 -233.194)" fill="#ffdbac"/><path d="M821.408,517.13l-1.763,4.6s-1.434.06-3.67.13c-7.548.241-24.179.547-24.921-1.392a4.93,4.93,0,0,1-.26-1.526,29.9,29.9,0,0,1,1.28-7.492s.793-9.079.793-9.473-.682-6.755-.682-6.755l1.364-5.1,3.8-2.668s1.7,2.612,2.723,2.835a7.076,7.076,0,0,1,2.385,1.48s3.345,2.041,4.426.9,9.473-6.128,9.473-6.128l4.426,4.88Z" transform="translate(-469.411 -275.492)" opacity="0.1"/><path d="M821.424,518.651l-1.763,4.593s-1.433.065-3.67.134h-.218c-.965.032-2.069.065-3.247.088-6,.139-14.261.176-18.58-.464-1.624-.232-2.686-.566-2.862-1.021a4.1,4.1,0,0,1-.2-.844c-.028-.213-.046-.464-.056-.682a29.908,29.908,0,0,1,1.28-7.492s.793-9.079.793-9.473-.682-6.755-.682-6.755l1.364-5.1,2.612-1.828,1.188-.835a17.817,17.817,0,0,0,1.3,1.716,3.471,3.471,0,0,0,1.42,1.118,7.1,7.1,0,0,1,2.385,1.48s3.345,2.041,4.426.9c.821-.868,5.924-3.99,8.281-5.414.724-.441,1.192-.714,1.192-.714l.594.659,3.832,4.222Z" transform="translate(-469.427 -276.307)" fill="#fff"/><path d="M721.748,449.643l-4.941,3.461s-.042-.691-.167-1.638a10,10,0,0,0,4.351-4.036C721.446,448.664,721.748,449.643,721.748,449.643Z" transform="translate(-429.66 -254.525)" opacity="0.1"/><path d="M733.907,461.915l-1.076-.288s-1.763,1.856-2.783,2.1a16.246,16.246,0,0,0-3.173,1.642l-2.5,1.986s-1.856.288-1.3-1.021-1.021-2.951-1.021-2.951-3.178-6.523-3.178-7.886-2.626-7.089-2.626-7.089-3.294,6.411-9.306,4.37c0,0,4.37,9.812,4.481,12.252s3.006,9.246,3.006,9.246a6.4,6.4,0,0,0,6.922,4.769s8.058,1.5,9.816,0,3.345-2.677,4.175-2.848a3.444,3.444,0,0,0,1.587-1.132v-6.745Z" transform="translate(-424.46 -255.051)" fill="#4c4981"/><path d="M743.3,491.33s1.42,5.279.51,5.845Z" transform="translate(-443.952 -278.059)" opacity="0.1"/><path d="M815.981,560.768c-7.548.241-24.179.543-24.922-1.392a4.931,4.931,0,0,1-.26-1.526l24.657,1.3Z" transform="translate(-469.417 -313.72)" opacity="0.1"/><path d="M814.728,662.6s-.464,1.29-1.1,2.983c-3.131-.19-7.279-.39-11.217-.418-1.392,0-2.756,0-4.045.046a30.472,30.472,0,0,0-6.611.733,17.534,17.534,0,0,1-5.892.761c-.51-1.962-.863-3.373-.863-3.373s8.573-.719,13.774-.97l.408-2.886Z" transform="translate(-466.307 -368.202)" opacity="0.1"/><path d="M814.9,588.068l-.965,2.041s-.135.608-.306,1.573a40.22,40.22,0,0,0-.714,8.814,69.732,69.732,0,0,1-.626,11s-20.876-1.758-27,0-9.139,0-9.139,0,.742-6.578-1.076-9.983c-1.239-2.32-2.111-12.674-2.139-19.484,0-3.141.158-5.521.552-6,1.248-1.531,6.578-16.849,6.578-16.849l1.216.065,3.247.172,18.464.974,2.9.153.306.928Z" transform="translate(-459.837 -314.433)" fill="#444053"/><path d="M873.349,597.431l.172,1.819s-9.144-2.978-8.68-6.639,0-3.247,0-3.247l7.348.622Z" transform="translate(-509.099 -330.607)" fill="#4c4981"/><path d="M873.349,597.431l.172,1.819s-9.144-2.978-8.68-6.639,0-3.247,0-3.247l7.348.622Z" transform="translate(-509.099 -330.607)" opacity="0.1"/><path d="M754.847,492.785a8.145,8.145,0,0,0,3.219,1.675,2.1,2.1,0,0,1-.928-.464c-.654-.464-1.276-.97-1.907-1.461a5.984,5.984,0,0,0-1.772-1.225A9.761,9.761,0,0,0,754.847,492.785Z" transform="translate(-449.399 -278.049)" opacity="0.1"/><path d="M753.841,497.021a4.1,4.1,0,0,1,.705,1.118,6.76,6.76,0,0,1-.051,3.512l-1.466-3.535c-.255-.6-.51-1.206-.817-1.781-.134-.246-.979-1.271-.881-1.484C751.591,494.246,753.567,496.682,753.841,497.021Z" transform="translate(-448.253 -279.895)" opacity="0.1"/><path d="M838.133,540.4a4.723,4.723,0,0,0,2.667-1.248c-1.508.19-2.937.784-4.421,1.095a6.568,6.568,0,0,1-4.12-.38A10.13,10.13,0,0,0,838.133,540.4Z" transform="translate(-491.643 -303.695)" opacity="0.1"/><path d="M827.185,514.266a1.035,1.035,0,0,1-.765-.19q-1.7-.974-3.349-2.032a22.25,22.25,0,0,1-3.28-2.264C822.04,511.812,824.137,513.528,827.185,514.266Z" transform="translate(-484.958 -287.95)" opacity="0.1"/><path d="M838.945,544.095a7.063,7.063,0,0,0,1.772-.144,2.375,2.375,0,0,0,1.457-.956.835.835,0,0,0-.617.1,10.411,10.411,0,0,1-5.7.682A8.227,8.227,0,0,0,838.945,544.095Z" transform="translate(-493.573 -305.745)" opacity="0.1"/><path d="M802.664,601.6a18.607,18.607,0,0,1-3.623.71,21.9,21.9,0,0,1-2.867-.056l-4.639-.292-2.32-.148c-.274,0-1.392,0-.84-.552.278-.269,1.828-.1,2.227-.111q1.155-.037,2.32-.042c1.536,0,3.076,0,4.611.093C799.254,601.286,800.948,601.416,802.664,601.6Z" transform="translate(-468.036 -336.911)" opacity="0.1"/><path d="M795.478,606.621a18.737,18.737,0,0,0-2.617.538,17.4,17.4,0,0,1-2.737.107,15.261,15.261,0,0,1-5.275-1.076C788.39,606.371,791.939,606.478,795.478,606.621Z" transform="translate(-466.227 -339.634)" opacity="0.1"/><path d="M784.473,612.188a7.6,7.6,0,0,1,1.011.278c1.958.557,4.041.065,6.031-.427a3.538,3.538,0,0,1-2.287,1.271,10.6,10.6,0,0,1-4.454.162c-.464-.093-1.628-.26-1.856-.742C782.539,612.021,784.037,612.119,784.473,612.188Z" transform="translate(-465.159 -342.77)" opacity="0.1"/><path d="M806.628,619.071a15.145,15.145,0,0,1,1.735.464c2.2.548,4.491-.2,6.7-.71a31.207,31.207,0,0,1,8.114-.752,8.033,8.033,0,0,0-1.74.571c-.626.19-1.262.367-1.9.524-1.248.306-2.514.557-3.79.738a38.971,38.971,0,0,1-7.78.339c-1.188-.065-3.247.056-4.263-.543A4.7,4.7,0,0,1,806.628,619.071Z" transform="translate(-476.337 -345.992)" opacity="0.1"/><path d="M790.958,466.38s.111,5.224-.738,7.608c-.269.742-.687,2.111-1.141,3.646-.5,1.7-1.039,3.609-1.457,5.1s-.7,2.5-.7,2.5-1.916,15.606-2.412,23.043a1.817,1.817,0,0,1-.028.39c-.028.418-.074.854-.144,1.3-1.1,7.385-7.474,18.775-9.612,19.684a6.365,6.365,0,0,0-1.8,1.239c0-3.141.158-5.521.552-6,1.248-1.531,6.578-16.849,6.578-16.849l1.215.065c-.028-.213-.046-.464-.056-.682a29.909,29.909,0,0,1,1.28-7.492s.793-9.079.793-9.473-.682-6.755-.682-6.755l1.364-5.1,2.612-1.828c.325-3.939,1.1-8.722,2.95-10.025a7.371,7.371,0,0,0,2.157-2.732c.366.051-.3-.274-.3-.274Z" transform="translate(-459.837 -263.269)" opacity="0.1"/><path d="M775.588,462.91a3.378,3.378,0,0,0-2.872.325,7.179,7.179,0,0,1-4.542.682c-.682-.167-7.771-1.081-8.351-.854s-1.7-.793-2.44.571-1.076,2.1-1.814,2.436-2.046,1.42-1.856,1.647-1.856,1.587-1.856,1.587L756,482.756s-2.668,17.016-3.971,18.492-12.878,20.593-8.736,24a82.449,82.449,0,0,0,10.383,6.959c.464.227,2.1-2.834,4.365-3.8s9.306-13.732,9.742-20.992,2.44-23.428,2.44-23.428,2.44-8.851,3.289-11.236.738-7.608.738-7.608Z" transform="translate(-443.47 -262.727)" fill="#4c4981"/><path d="M849.447,541.584l-.965,2.041s-.135.608-.306,1.573a.868.868,0,0,1-.464-.209c-1.419-1.137-9.742-9.7-10.155-17.3-.292-5.609-.153-10.443-.06-12.6.028-.677.056-1.086.056-1.174h0s6.467-7.831,5.729-10.605-2.44-17.629-2.44-17.629l-.25-1.948-.431-3.294-1.03-7.97,1.067.251a3.1,3.1,0,0,0,.645.654l1.1,7.01,3.832,4.222.626,25.7-1.763,4.593s-1.434.065-3.669.134h-.218Z" transform="translate(-494.388 -267.949)" opacity="0.1"/><path d="M853.737,498.768s-1.587-.626-1.7,0-.4,1.981-.4,1.981.283,3.294-.928,4.6-1.392,6.806-1.392,6.806-1.911,5.446-1.007,7.149a45.869,45.869,0,0,1,1.35,7.423c.325,2.32.645,4.867.928,7.2.515,4.231.9,7.734.9,7.734s-1.025,3.744-2.445,2.607-9.742-9.7-10.15-17.3c-.278-5.34-.167-9.979-.074-12.266.037-.97.074-1.517.074-1.517s6.467-7.831,5.729-10.61-2.44-17.629-2.44-17.629l-.3-2.3-.32-2.468-.074-.543-1.025-7.887h0c.181.042,6.546,1.48,7.386,2.32s6.031,2.041,6.031,2.041a4.537,4.537,0,0,1,3.22,3.3c.051.158.088.325.125.5.682,3.294.464,3.688.928,4.259S853.737,498.768,853.737,498.768Z" transform="translate(-495.105 -267.558)" fill="#4c4981"/><path d="M857.821,597.445c-2.32-.464-5.762-1.536-5.683-3.9.07-2.213,2.732-3.011,4.75-3.294C857.214,592.56,857.534,595.116,857.821,597.445Z" transform="translate(-502.299 -331.089)" opacity="0.1"/><path d="M865.408,595.687c-.093.2-.464.371-.993.524a26.743,26.743,0,0,1-3.772.617s-7.887-.626-7.775-4.2c.083-2.565,3.646-3.247,5.646-3.4a13,13,0,0,1,1.331-.056S865.747,594.954,865.408,595.687Z" transform="translate(-502.69 -330.509)" fill="#ffdbac"/><path d="M871.441,595.687c-.093.2-.464.371-.993.524-2.055-2.751-4.922-6.281-6.328-6.592l.427-.394a12.994,12.994,0,0,1,1.331-.056S871.779,594.954,871.441,595.687Z" transform="translate(-508.722 -330.509)" opacity="0.1"/><path d="M869.852,497.69l2.32.343a40.319,40.319,0,0,0,2.784,4.254,4.639,4.639,0,0,1,1.021,2.723s3.405,5.047,4.481,5.613,2.723,4.426,2.723,4.426,2.667,1.758,2.667,3.744a33.358,33.358,0,0,0,.51,4.936,14,14,0,0,1-1.531,5.567,19.012,19.012,0,0,0-2.213,6.346c.06.7-3.178,4.314-4.083,5.446a23.06,23.06,0,0,0-1.986,3.349l-3.006,5.674s-6.356-9.362-8.68-9.872c0,0,2.607-2.5,3.911-2.951s2.556-4.175,2.612-5.047,1.192-3.688,2.38-4.175,1.818-1.021,1.308-1.818a3.39,3.39,0,0,1,0-2.32s-3.349-4.426-3.8-6.959-3.516-4.254-3.516-4.254l-1.758-4.314Z" transform="translate(-509.119 -281.469)" fill="#4c4981"/><path d="M891.361,541.335a7.363,7.363,0,0,1,4.579-1.735,5.58,5.58,0,0,0-3,1.174,7.063,7.063,0,0,0-.83,1.058c-.269.385-2.459,3.168-2.783,2.728C888.786,543.914,890.92,541.711,891.361,541.335Z" transform="translate(-522.189 -303.936)" opacity="0.1"/><path d="M882.73,527.118a1.963,1.963,0,0,0,1.619-1.146,6.428,6.428,0,0,0,.506-2.013,30.023,30.023,0,0,1,.7-3.447,1.6,1.6,0,0,0-.1-1.392,4.7,4.7,0,0,0-.5-1.03,6.177,6.177,0,0,0-.71,2.167c-.213.77-.408,1.545-.594,2.32C883.556,522.947,882.786,527.118,882.73,527.118Z" transform="translate(-518.699 -292.405)" opacity="0.1"/><path d="M839.641,445.013a4.78,4.78,0,0,1-.784.807c-.928.738-2.157,1.359-2.273,2.524a2.715,2.715,0,0,1-.139,1.118c-.3.51-1.025.464-1.605.367a2.783,2.783,0,0,1-1.359-.5c-.608-.52-.663-1.447-1.127-2.1a2.862,2.862,0,0,0-2.32-1.025c-.867-.028-1.73.167-2.6.2a7.138,7.138,0,0,1-1.665-.111,5.283,5.283,0,0,1-.538-.111,6.922,6.922,0,0,1-1.132-.385,4.983,4.983,0,0,1-.552-.26,7.327,7.327,0,0,1-1.6-1.113,3.979,3.979,0,0,1-1.484-3.011c.042-.71.362-1.364.464-2.064.348-2-.983-3.9-2.426-5.33-.575-.571-1.188-1.123-1.763-1.7a8.485,8.485,0,0,1-2.074-2.96,8.816,8.816,0,0,1-.371-3.711,25.6,25.6,0,0,0,.107-3.813c-.427-4.509-4.277-7.965-8.128-9.844l-.172-.088a12.363,12.363,0,1,1,16.631,18.093c-.042.144-.079.288-.111.427-.891,3.563-.3,5.725.362,6.917h0c.181.042,6.546,1.48,7.385,2.32S836.4,441.7,836.4,441.7A4.537,4.537,0,0,1,839.641,445.013Z" transform="translate(-477.619 -233.203)" opacity="0.1"/><path d="M803.952,402.274c.255-.292.64-.441.9-.724.8-.872,0-2.3.292-3.447.315-1.276,1.883-1.832,3.192-1.7s2.533.738,3.841.886c2.032.227,4-.654,5.98-1.169s4.375-.543,5.739.974,1.271,4.1,2.969,5.2a16.891,16.891,0,0,0,2.621.928,5.386,5.386,0,0,1,2.218,2.12,11.105,11.105,0,0,1,1.679,7.1c-.144,1.345-.534,2.654-.691,4a11.642,11.642,0,0,0,.278,4.175c.357,1.392,1.132,2.895,2.519,3.34a4.246,4.246,0,0,1,.928.32c.8.5.7,1.679.492,2.6l-.826,3.809c.793.6,2.027.343,2.784.979a2.321,2.321,0,0,1,.649,1.021,5.567,5.567,0,0,1-1.665,6.1c-.928.738-2.157,1.359-2.273,2.519a2.615,2.615,0,0,1-.139,1.118c-.292.51-1.025.464-1.605.366a2.784,2.784,0,0,1-1.355-.5c-.612-.52-.663-1.447-1.127-2.1a2.871,2.871,0,0,0-2.32-1.025c-.872-.028-1.73.167-2.6.209a7.691,7.691,0,0,1-5.469-1.976,3.993,3.993,0,0,1-1.489-3.015c.042-.705.362-1.364.464-2.064.343-2-.983-3.9-2.426-5.33s-3.136-2.756-3.841-4.662c-.882-2.361-.028-5-.264-7.5-.427-4.514-4.273-7.965-8.128-9.849C804.416,404.529,802.955,403.411,803.952,402.274Z" transform="translate(-476.287 -226.85)" fill="#444053"/><path d="M834.25,441.933c-.612-.524-.663-1.447-1.127-2.1a2.881,2.881,0,0,0-2.32-1.03c-.872-.028-1.735.167-2.6.209a7.668,7.668,0,0,1-5.488-1.981,3.978,3.978,0,0,1-1.485-3.011c.042-.71.362-1.368.464-2.064.348-2-.983-3.9-2.426-5.335s-3.132-2.756-3.841-4.662c-.877-2.357,0-4.992-.26-7.5-.431-4.514-4.277-7.965-8.128-9.849-.9-.441-2.361-1.559-1.364-2.7.251-.292.636-.441.9-.724.8-.868,0-2.3.3-3.442a1.9,1.9,0,0,1,.292-.636,2.475,2.475,0,0,0-2.092,1.656c-.283,1.151.51,2.575-.292,3.447-.26.283-.645.431-.9.719-1,1.137.464,2.259,1.364,2.7,3.855,1.883,7.7,5.34,8.128,9.849.237,2.51-.617,5.145.264,7.506.705,1.9,2.4,3.247,3.841,4.662s2.784,3.326,2.426,5.33a17.791,17.791,0,0,0-.464,2.064,3.984,3.984,0,0,0,1.489,3.011,7.65,7.65,0,0,0,5.483,1.981c.872-.042,1.73-.232,2.6-.209a2.885,2.885,0,0,1,2.32,1.03c.464.654.515,1.582,1.127,2.1a2.784,2.784,0,0,0,1.355.5c.58.107,1.313.144,1.605-.362a1.253,1.253,0,0,0,.13-.668,2.668,2.668,0,0,1-1.294-.487Z" transform="translate(-476.245 -227.55)" opacity="0.1"/><path d="M633.657,218.423H601.568V186.8H633.68Zm-.464-47.676H602.032c0-49.138,46.707-46.266,46.707-77.353A30.98,30.98,0,0,0,617.6,62.553c-17.123,0-31.133,14.79-31.133,31.328H555.33a62.272,62.272,0,0,1,124.542-.487c0,38.871-46.7,43.3-46.7,77.353Z" transform="translate(-343.184 -31.61)" fill="#fc7e2f"/><path d="M355.871,358.25h-8.276v-8.174h8.276Zm-.125-12.294H347.72c0-12.665,12.039-11.927,12.039-19.948a7.989,7.989,0,0,0-8.026-7.956,8.2,8.2,0,0,0-8.007,8.072H335.7A16.055,16.055,0,1,1,367.81,326c-.025,10.021-12.064,11.162-12.064,19.939Z" transform="translate(-225.444 -180.854)" fill="#fc7e2f" opacity="0.1"/><path d="M490.908,480.681h-8.276V472.53h8.276Zm-.121-12.289h-8.026c0-12.669,12.039-11.927,12.039-19.948a7.984,7.984,0,0,0-8.026-7.951,8.2,8.2,0,0,0-8.049,8.081H470.7a16.055,16.055,0,1,1,32.11-.125C502.821,458.469,490.787,459.615,490.787,468.392Z" transform="translate(-297.815 -246.497)" fill="#fc7e2f" opacity="0.1"/><path d="M579.492,279.321h-6v-5.9h6Zm-.088-8.912h-5.817c0-9.176,8.726-8.643,8.726-14.451a5.79,5.79,0,0,0-5.818-5.762,5.938,5.938,0,0,0-5.818,5.855H564.86a11.635,11.635,0,0,1,23.27-.093C588.121,263.219,579.4,264.049,579.4,270.409Z" transform="translate(-348.293 -145.668)" fill="#fc7e2f" opacity="0.1"/><path d="M807.66,315.031h-3.391v-3.34h3.391ZM807.609,310H804.3c0-5.187,4.931-4.885,4.931-8.169a3.247,3.247,0,0,0-3.284-3.247,3.359,3.359,0,0,0-3.289,3.308H799.37a6.578,6.578,0,0,1,13.152-.051C812.541,305.915,807.609,306.4,807.609,310Z" transform="translate(-474.011 -173.055)" fill="#fc7e2f" opacity="0.1"/><path d="M919.442,642.5H916.05v-3.34h3.391Zm-.051-5.034H916.1c0-5.191,4.936-4.885,4.936-8.169a3.27,3.27,0,0,0-3.289-3.247,3.354,3.354,0,0,0-3.289,3.308H911.17a6.578,6.578,0,0,1,13.152-.051c.019,4.1-4.913,4.565-4.913,8.16Z" transform="translate(-533.945 -348.608)" fill="#fc7e2f" opacity="0.1"/></g></svg>